PathFileType	4	(X/Y/Z)	Patient4_TMGait_0pt5_02_left_02.trc.trc
DataRate	CameraRate	NumFrames	NumMarkers	Units	OrigDataRate	OrigDataStartFrame	OrigNumFrames
77.348066298343	77.348066298343	4	33	mm	77.348066298343	1	       141
Frame#	Time	Sacral			L.Shoulder			Chest			R.Shoulder			Neck			R.ASIS			L.ASIS			R.Thigh.Superior			R.Thigh.Lateral			R.Thigh.Inferior			R.Patella			L.Thigh.Superior			L.Thigh.Lateral			L.Thigh.Inferior			L.Patella			L.Shank.Superior			L.Shank.Lateral			L.Shank.Inferior			R.Shank.Superior			R.Shank.Lateral			R.Shank.Inferior			R.Heel			R.Midfoot.Superior			R.Midfoot.Lateral			R.Toe			L.Heel			L.Midfoot.Lateral			L.Midfoot.Superior			L.Toe			L.Elbow			L.Wrist			R.Elbow			R.Wrist			
		X1	Y1	Z1	X2	Y2	Z2	X3	Y3	Z3	X4	Y4	Z4	X5	Y5	Z5	X6	Y6	Z6	X7	Y7	Z7	X8	Y8	Z8	X9	Y9	Z9	X10	Y10	Z10	X11	Y11	Z11	X12	Y12	Z12	X13	Y13	Z13	X14	Y14	Z14	X15	Y15	Z15	X16	Y16	Z16	X17	Y17	Z17	X18	Y18	Z18	X19	Y19	Z19	X20	Y20	Z20	X21	Y21	Z21	X22	Y22	Z22	X23	Y23	Z23	X24	Y24	Z24	X25	Y25	Z25	X26	Y26	Z26	X27	Y27	Z27	X28	Y28	Z28	X29	Y29	Z29	X30	Y30	Z30	X31	Y31	Z31	X32	Y32	Z32	X33	Y33	Z33	

1	1.890000000000	555.865883578172	1007.776374974691	524.309105759827	730.603569459808	1438.302597354232	347.471542504577	840.318469054781	1360.584485865765	501.056333533137	767.515236064918	1431.705367889015	682.154163014541	743.021117422231	1494.703557504766	499.994550127778	790.648136223102	939.023919407256	628.089640749991	761.275077280352	964.582858205564	355.609361985644	833.056671234492	739.462195719378	594.694729419444	755.335427948471	630.398314472063	652.784036351916	829.988712525968	580.083755513529	568.157287442204	831.459365112880	490.084762917979	571.099482544481	839.604458989941	776.032921728421	382.758037152650	788.152933590245	649.655777489142	310.533437626542	889.907413730637	584.547222325593	369.020706524017	901.242676563740	495.901219382497	364.120229321807	840.555570296562	426.543706186163	358.926866509348	703.699485923792	369.445809341437	311.207563310565	704.447310648364	240.416008308458	368.995395860447	800.575436167447	401.651971138974	579.493292468948	729.612404091865	299.079100930043	642.826764438898	765.464266485208	204.549018338303	577.407180695878	625.562456712405	42.227957154169	550.253387110057	797.761673014849	97.001987982082	581.649566440650	710.538685609631	36.136733933794	623.556673798794	918.225440559697	45.796870520588	608.032630531389	519.771732596542	154.617955156241	407.091248995327	583.895636703412	115.772556642269	327.964374815992	687.473108698820	137.615020860435	349.566289889641	779.344646268122	36.253408989845	323.983177454040	669.337965137279	1087.857502820395	230.025278495620	826.872623035253	877.874283167193	211.667857202253	787.961823096477	1080.903307888029	793.705312094233	951.152717793963	880.127532463021	752.575176660962	
2	1.902928571429	554.468722389795	1008.461825145025	526.781440009674	728.129289621871	1438.396080139543	348.114955352578	839.476012700240	1360.546722177227	500.361756928119	769.406269096472	1432.317724642813	682.179526744957	742.518809465063	1494.954889355020	500.288189327049	789.389881098164	938.682069639079	628.175868386973	757.789024821024	965.272800584326	356.178225378267	829.907274440267	738.850871597196	594.078117299955	752.003906540920	630.310440251183	653.145097609658	825.382632318548	579.441102639262	567.836138183666	826.078215575377	489.557364508726	570.849671632059	837.864455565749	778.408895862473	383.013210522485	787.019150281520	651.451209371841	311.002273269426	889.049632229922	587.129295476779	369.652536088725	902.067258981112	500.102715488577	364.760602925948	845.275012775287	429.504277718258	358.683880567945	713.041984502757	364.726329313825	310.493801206717	722.364449573075	236.176850685322	367.240045158789	795.064401797135	401.287728180874	579.423996220439	723.902106295311	298.901228992612	642.860396862398	759.122671718374	204.344737819936	577.277857209044	618.722373995823	42.209559482185	550.265244309983	790.836662853342	96.924735744848	581.591177980497	703.663989968976	36.156251695343	623.593334558845	911.354234609648	45.668599675372	608.009407212304	545.112886429457	138.672847530099	405.066299582062	610.699883577587	105.171264958149	325.323526972903	711.996583406930	133.324899918834	346.902827590805	809.567681170525	39.139702694326	319.939474486312	662.573065956908	1088.261639067143	232.382629347995	809.837162263090	872.086179564756	211.306906894034	798.318548654207	1083.092449260032	793.948086131961	971.339215665420	894.733997531465	746.705199282929	
3	1.915857142857	553.064199709815	1009.148881621515	529.196091392925	725.683676234555	1438.479352272115	348.736710520622	838.644331931914	1360.497981070995	499.650080844951	771.276986158094	1432.899457862683	682.174232610280	742.022649526435	1495.189122648445	500.562057521168	788.184219312282	938.361846790868	628.232502376332	754.383509827192	965.941459985361	356.704454254298	826.790272482503	738.237996242396	593.467508208007	748.702688637366	630.216098313121	653.504299081968	820.817340937021	578.798032132624	567.531829100426	820.744093002612	489.032104797316	570.618630594739	836.043927714597	780.634869131090	383.280240390732	785.768910510838	653.145800356713	311.429991999912	887.980087406234	589.552618524120	370.351495627938	902.702556158796	504.211601489944	365.431472396407	849.825371679720	432.436280614987	358.484566750778	722.419731524975	360.030502386504	309.721877507455	740.239344836349	232.125002462503	365.550603880530	789.596735216355	400.920983974041	579.363109035314	718.240361759622	298.721739995373	642.907551304828	752.829516742519	204.135665713870	577.158068364049	611.928202734290	42.194948928701	550.279258234855	783.966527994389	96.849458720068	581.536278387196	696.839504701441	36.172641630404	623.628753205297	904.535555918399	45.536920875164	607.987207087047	570.585006668076	123.039662865056	402.987540208701	637.644307499034	94.885211635477	322.729553897416	736.520619816445	129.325279438684	344.376053470461	839.697526031843	42.414520946287	316.220257150692	655.912068288705	1088.667633363439	234.679725150378	792.931587373380	866.456577076898	210.970859001121	808.538385873021	1085.278008269102	794.134833672776	991.150798580293	909.412146027975	740.806635443442	
4	1.928785714286	551.663953743980	1009.827465461123	531.493345641915	723.302581973463	1438.540112035511	349.306480587115	837.834799860218	1360.425832391676	498.903071242032	773.097542894860	1433.420354802353	682.103618950147	741.538886745346	1495.387931237252	500.788876077650	787.073988111169	938.073752025322	628.239260548845	751.134142356768	966.561047478409	357.148275419826	823.744745499072	737.619705811502	592.872345010106	745.467480506376	630.105957045331	653.854354245473	816.341587941709	578.152788235040	567.254671428133	815.513409657524	488.504873748308	570.418482133314	834.082251800779	782.576769212513	383.562410145006	784.320823235969	654.649165484586	311.779364623635	886.550776157708	591.676809349370	371.148286253977	902.995070928770	508.123760275538	366.149415254292	854.051454542169	435.308086924724	358.355470921425	731.811156550759	355.424047656146	308.864852692801	757.950360827731	228.466465409297	363.986546884893	784.218541261499	400.546146250971	579.313204985174	712.672105902658	298.539937361367	642.975097848381	746.624933953694	203.917551095489	577.053773359793	605.211493914079	42.189105646279	550.297793670652	777.190284217683	96.777687437449	581.487618582428	690.100214544138	36.184151578910	623.662536188280	897.805533375475	45.396802534518	607.967905548716	596.171710612232	108.115160808901	400.853795777254	664.696917968860	85.266222108398	320.253280275578	760.920908081775	125.902276543960	342.103297051443	869.486598140745	46.388402127953	313.084710443749	649.448495418841	1089.078982665665	236.853260940902	776.304102153425	861.152408998605	210.690033050415	818.489233187196	1087.455940563842	794.184319367834	1010.178826694317	924.225952096420	734.841118484016	
